<svg xmlns="http://www.w3.org/2000/svg" xmlns:xlink="http://www.w3.org/1999/xlink" viewBox="0 0 631.47 353.98"><defs><style>.cls-1{fill:#ffef0d;}.cls-2{fill:url(#Degradado_sin_nombre_7);}.cls-3{fill:url(#Degradado_sin_nombre_7-2);}.cls-4{fill:#125fb2;}.cls-5{font-size:39.69px;font-family:HelveticaNeueLTCom-Roman, Helvetica Neue LT Com;}.cls-5,.cls-7{letter-spacing:0.1em;}.cls-6{letter-spacing:0.08em;}</style><linearGradient id="Degradado_sin_nombre_7" x1="178.11" y1="189.07" x2="149.07" y2="113.33" gradientUnits="userSpaceOnUse"><stop offset="0" stop-color="#125fb2" stop-opacity="0.5"/><stop offset="1" stop-color="#125fb2" stop-opacity="0"/></linearGradient><linearGradient id="Degradado_sin_nombre_7-2" x1="119.69" y1="247.77" x2="61.19" y2="318.77" xlink:href="#Degradado_sin_nombre_7"/></defs><title>ico</title><g id="mesa1"><path class="cls-1" d="M95.2,96.2s-12.67,75.08,38.56,137.15S249.39,298.6,259.64,297s50.43-11.57,50.43-11.57-85.83-4.73-144.7-74.77c-78.13-93-40.49-171.26-40.49-171.26C112.17,55.88,95.2,96.2,95.2,96.2Z"/><path class="cls-2" d="M123.74,213.61s52.1-49.24,59.41-137.75l16.63,3.35s.73,19.48-9.27,57.48S123.74,213.61,123.74,213.61Z"/><path class="cls-3" d="M162,232.27s-35.62,66.92-91,106.92L31,310.08s80.49-59.74,96.49-77.81S162,232.27,162,232.27Z"/><path class="cls-1" d="M219,101.05c.9,11.5-.56,58.87-50.17,122.5s-90.48,95.87-90.48,95.87l-42.6-30.69S81,266.19,136.92,199.17C208.78,113.05,201.3,56.06,201.3,56.06S218.08,88.94,219,101.05Z"/><path class="cls-4" d="M120.13,39C105.27,61.42,97.82,85.86,94.88,97.4c6.73-18.46,33.46-37,61.56-37,29.83,0,58.29,22.31,62.59,40.61A215.27,215.27,0,0,0,196.73,39C184.7,17,140.47,8.25,120.13,39Z"/><path class="cls-1" d="M401.84,273.35s-17.7,17.1-27.51,18.53-10.11-.29-17.07-7.7-22.94-36.56-22.94-36.56l13.77-22.08s6.17-11.74,18.18-10.6,17.87,32.63,24.67,45.45S401.84,273.35,401.84,273.35Z"/><path class="cls-4" d="M253.86,297.29l49.13-.35s13.55-14.76,28.5-42.22c10.91-20.05,23.4-39.63,34.78-39.78.32.15-43.16-1.28-43.16-1.28s-11.7-2-22.37,17.6S275.05,290.17,253.86,297.29Z"/><path class="cls-1" d="M463.35,264.24l1.73,9.83,55.5-8.84s-16.44-30.5-28.62-29.85S463.35,264.24,463.35,264.24Z"/><path class="cls-4" d="M495.44,235.74s-9.8-4.27-21.19,14.82-30,39.38-46.16,41.77c-.32.4-53.76-.45-53.76-.45S387,287,401.84,273.35s20.4-27.21,20.4-27.21,3.48-8.54,12.65-9.4S484.22,233.18,495.44,235.74Z"/><text class="cls-5" transform="translate(239.25 99.19)">FUNDACION<tspan x="-9.15" y="47.62">TRISOMIA 21</tspan><tspan class="cls-6"><tspan x="7.64" y="95.24">V</tspan><tspan class="cls-7" x="35.14" y="95.24">illa Angela</tspan></tspan></text></g></svg>